<svg xmlns="http://www.w3.org/2000/svg" width="900" height="345" preserveAspectRatio="xMidYMid meet" version="1.0" viewBox="0 0 9000 3450"><g id="layer101" fill="#000" stroke="none"><path d="M3000 3190 c-8 -5 -36 -14 -62 -21 -27 -6 -48 -16 -48 -21 0 -6 -8 -7 -17 -4 -10 4 -14 4 -10 0 8 -8 -31 -44 -48 -44 -7 0 -15 -7 -18 -14 -3 -8 -21 -23 -39 -32 -52 -26 -142 -87 -151 -101 -6 -11 -259 -13 -1307 -13 -857 0 -1300 -3 -1300 -10 0 -7 437 -11 1277 -12 l1276 -3 -44 -30 c-42 -28 -84 -64 -169 -145 -86 -81 -73 -79 -126 -21 -26 28 -50 48 -55 46 -4 -3 -10 -1 -14 5 -3 5 -27 20 -53 32 -66 30 -150 27 -212 -9 -47 -28 -110 -86 -110 -103 0 -5 -11 -33 -25 -62 -13 -29 -31 -73 -39 -98 -22 -70 -40 -295 -32 -402 4 -51 9 -129 12 -173 5 -86 21 -188 34 -220 18 -42 17 -81 -1 -139 -11 -33 -22 -78 -25 -100 -3 -23 -14 -68 -24 -101 -28 -95 -49 -177 -55 -220 -4 -22 -10 -53 -15 -70 -22 -74 -39 -157 -49 -235 -6 -47 -16 -101 -21 -120 -15 -54 -12 -84 10 -98 30 -19 56 0 75 55 26 77 58 135 93 175 24 27 33 45 30 64 -4 35 -19 40 -48 14 -30 -26 -38 -25 -33 3 34 206 39 228 82 373 12 39 21 75 21 82 0 6 5 23 10 38 11 29 26 24 33 -11 2 -11 11 -37 21 -57 9 -21 16 -43 16 -50 0 -7 17 -47 37 -88 20 -41 36 -78 35 -82 -3 -11 139 -218 171 -250 15 -15 27 -25 27 -23 0 3 16 -4 36 -14 50 -27 94 -12 161 52 62 59 73 85 47 104 -15 11 -24 9 -63 -13 -25 -14 -53 -35 -63 -45 -25 -29 -60 -23 -106 17 -54 46 -130 144 -144 186 -6 18 -17 40 -24 48 -7 8 -16 27 -19 43 -4 15 -11 30 -16 33 -5 3 -9 13 -9 22 0 10 -9 35 -20 57 -11 22 -20 47 -20 57 0 9 -4 19 -9 22 -17 11 -34 137 -27 203 7 65 29 135 51 163 7 8 15 30 19 49 12 67 134 308 207 410 22 30 39 60 39 67 0 6 12 25 28 41 15 17 33 42 41 56 8 14 21 29 29 32 18 7 49 -19 58 -49 3 -11 12 -28 19 -36 6 -8 18 -31 25 -50 7 -19 21 -44 30 -55 10 -11 21 -38 24 -59 4 -21 14 -48 21 -60 7 -12 17 -38 20 -58 4 -21 11 -38 17 -38 5 0 6 -4 3 -10 -3 -5 -2 -10 3 -10 5 0 9 -6 9 -12 0 -7 12 -60 26 -118 15 -58 29 -125 33 -150 10 -69 7 -346 -4 -383 -6 -17 -10 -39 -10 -47 1 -31 -71 -257 -105 -330 -6 -14 -31 -53 -54 -87 -24 -35 -43 -66 -43 -70 0 -14 -115 -133 -128 -133 -6 0 -12 -6 -12 -12 -1 -7 -20 -27 -43 -44 -37 -27 -46 -29 -77 -22 -19 5 -46 21 -59 35 -24 26 -25 26 -34 5 -7 -16 -3 -28 18 -56 15 -20 37 -37 49 -37 11 -1 32 -3 46 -4 33 -4 98 34 143 84 20 23 41 41 47 41 5 0 10 5 10 10 0 6 15 24 33 40 19 16 52 58 75 92 23 35 45 68 50 73 19 25 52 87 52 100 0 8 9 29 20 47 11 18 20 44 20 59 0 14 4 29 8 35 12 13 29 73 37 124 4 25 11 50 16 55 18 23 27 271 15 390 -9 81 -33 197 -56 270 -10 33 -26 87 -35 120 -9 33 -25 78 -35 100 -9 22 -25 56 -34 77 -9 20 -16 40 -16 46 0 15 -38 96 -57 123 -59 80 -58 105 10 170 71 70 82 79 93 79 5 0 26 16 47 35 21 19 50 41 65 49 15 8 36 23 47 33 11 10 41 31 67 46 l47 27 210 0 211 0 1 -52 c0 -52 3 -130 13 -408 6 -137 12 -257 22 -410 3 -47 7 -110 9 -140 3 -55 9 -142 20 -320 4 -52 8 -124 10 -160 1 -36 6 -81 9 -100 3 -19 8 -101 10 -182 3 -81 10 -156 16 -167 6 -12 21 -21 34 -21 43 0 49 21 43 143 -3 61 -8 123 -11 136 -3 14 -8 97 -11 185 -4 89 -8 168 -10 176 -2 8 -7 62 -10 120 -3 58 -10 169 -16 247 -6 78 -8 146 -6 151 3 4 1 41 -4 82 -13 101 -21 520 -9 520 4 0 11 -13 15 -30 4 -16 11 -30 16 -30 5 0 11 -11 15 -25 3 -14 10 -25 15 -25 5 0 9 -5 9 -11 0 -21 117 -185 178 -251 35 -37 93 -91 130 -121 68 -56 172 -115 172 -98 0 8 68 -2 74 -11 24 -32 51 -74 51 -78 1 -12 64 -81 103 -112 59 -48 78 -50 172 -22 46 14 100 84 126 162 l17 54 61 -65 c110 -117 180 -147 211 -88 22 43 25 117 9 198 -15 75 -16 145 -2 137 4 -3 8 -12 8 -20 0 -8 4 -14 9 -14 5 0 11 -8 15 -17 15 -46 116 -189 178 -253 19 -19 46 -52 61 -73 33 -44 158 -120 237 -144 73 -22 243 -19 303 5 15 7 38 14 52 16 13 2 40 12 59 21 30 14 41 15 73 5 21 -7 42 -16 47 -21 11 -10 60 -12 93 -3 12 3 29 22 38 41 16 33 16 36 -2 56 -26 31 -33 35 -54 30 -22 -6 -79 15 -79 29 0 5 -6 8 -12 6 -18 -3 -173 50 -228 78 -52 26 -140 101 -140 118 0 13 45 9 159 -13 69 -14 187 -5 229 17 l32 17 30 -32 c17 -18 30 -34 30 -37 0 -4 8 -14 18 -24 9 -10 26 -30 37 -45 18 -25 69 -52 89 -48 26 5 32 -22 29 -138 -3 -114 -3 -120 19 -135 31 -22 43 -20 77 13 32 31 49 93 59 210 6 76 5 229 -2 316 -3 33 -3 54 0 48 14 -33 73 10 71 50 -1 15 -6 27 -11 27 -4 0 -5 11 -2 25 4 14 2 25 -3 25 -7 0 -32 78 -36 115 -1 6 -4 17 -7 25 -17 40 -38 113 -38 133 0 22 -54 80 -65 69 -3 -3 -5 -1 -5 4 0 5 -17 10 -37 12 -26 2 -43 10 -57 29 -12 14 -34 41 -50 60 l-28 33 283 -1 c156 -1 275 -4 264 -6 -11 -3 -25 -13 -33 -22 -13 -16 -64 -121 -64 -131 0 -3 -5 -12 -12 -20 -14 -16 -40 -110 -32 -117 2 -3 -2 -23 -9 -46 -15 -45 -35 -186 -40 -280 -4 -63 -7 -73 -25 -62 -8 5 -8 11 1 21 6 8 8 14 3 14 -13 0 -41 -20 -29 -20 6 0 2 -5 -7 -11 -10 -5 -18 -16 -18 -24 0 -8 8 -19 18 -24 10 -6 12 -11 4 -11 -9 0 -12 -30 -13 -117 0 -65 -1 -163 -2 -218 -1 -55 1 -118 5 -140 6 -39 20 -212 20 -247 -1 -10 2 -18 6 -18 4 0 6 -17 4 -39 -3 -29 1 -44 20 -64 13 -14 30 -26 38 -27 25 -4 60 12 60 26 0 8 5 14 11 14 7 0 10 23 7 65 -1 36 0 65 4 65 3 0 4 9 1 20 -3 11 -9 20 -14 20 -12 0 -12 347 0 354 5 4 5 18 -2 35 -8 22 -8 36 1 55 8 18 8 27 1 32 -8 4 -7 9 2 15 11 6 11 11 2 20 -9 9 -9 16 0 30 9 15 9 24 -1 39 -7 11 -8 20 -3 20 8 0 21 85 26 175 2 22 8 67 14 99 6 33 9 61 7 64 -2 2 4 28 14 58 11 30 21 71 24 92 5 44 15 72 26 72 4 0 10 13 13 30 6 28 38 70 54 70 12 0 72 -73 79 -95 12 -39 29 -75 36 -75 5 0 8 -9 8 -20 0 -11 4 -20 9 -20 5 0 7 -9 4 -20 -3 -11 -1 -20 4 -20 10 0 53 -130 57 -175 4 -34 27 -85 38 -85 5 0 6 -5 3 -11 -4 -5 -2 -22 4 -37 13 -34 60 -245 73 -332 5 -36 13 -67 17 -70 7 -5 20 -68 26 -135 2 -16 15 -86 29 -155 14 -69 26 -135 26 -147 0 -13 5 -23 10 -23 6 0 10 -24 10 -53 0 -30 3 -57 7 -61 8 -8 11 -21 22 -116 17 -140 41 -250 55 -250 6 0 4 -5 -4 -10 -10 -7 -12 -12 -4 -17 12 -9 22 -43 30 -106 4 -23 19 -96 34 -161 16 -66 27 -123 24 -127 -2 -4 0 -9 5 -11 6 -1 12 -19 14 -38 5 -34 15 -78 44 -187 8 -29 18 -53 23 -53 5 0 9 -8 9 -17 0 -28 17 -95 31 -125 12 -26 18 -28 69 -28 51 1 54 2 37 15 -19 14 -45 75 -46 105 0 8 -7 28 -15 44 -9 17 -18 41 -20 55 -5 39 -21 109 -39 176 -9 32 -16 69 -16 81 0 12 -7 35 -15 50 -8 16 -15 41 -15 57 0 15 -4 27 -8 27 -4 0 -14 44 -21 98 -20 150 -23 167 -32 172 -5 4 -11 24 -14 45 -3 22 -9 65 -15 95 -5 30 -12 69 -15 85 -2 17 -8 44 -11 60 -4 17 -8 41 -9 55 -14 159 -19 186 -31 193 -7 4 -11 13 -8 21 3 7 -2 46 -10 87 -27 133 -38 199 -52 319 -3 30 -10 57 -14 60 -10 6 -18 39 -24 90 -4 38 -14 87 -24 110 -7 19 -11 46 -13 93 -1 23 -6 37 -14 37 -8 0 -11 8 -8 21 3 12 1 24 -6 28 -7 4 -13 19 -15 32 -1 13 -5 31 -8 39 -8 22 -28 102 -32 125 -2 11 -5 21 -6 23 -1 1 -3 6 -4 11 0 5 -4 13 -8 17 -5 4 -8 18 -8 31 0 13 -4 31 -9 41 -6 9 -24 49 -41 87 -50 112 -54 119 -72 136 -10 9 -18 20 -18 25 0 5 -14 24 -31 42 l-30 32 1235 0 c817 0 1236 3 1236 10 0 7 -536 10 -1589 10 l-1589 0 -15 24 c-15 22 -23 24 -82 22 -55 -1 -67 -5 -81 -24 -15 -22 -19 -23 -222 -22 -192 1 -210 3 -270 26 -81 30 -107 30 -134 -1 l-22 -25 -853 0 -853 0 -16 25 c-9 14 -20 23 -24 20 -5 -3 -12 9 -16 27 -11 55 -71 151 -91 147 -4 -1 -21 3 -38 10 -16 7 -37 14 -45 16 -8 2 -22 6 -30 9 -8 2 -22 1 -30 -4z m100 -142 c19 -12 60 -78 60 -97 0 -8 -57 -11 -192 -10 -157 0 -188 3 -166 12 14 7 34 20 45 29 10 9 38 26 63 38 25 11 56 27 70 36 27 16 87 12 120 -8z m1911 -152 c9 -20 18 -23 58 -23 58 1 145 -38 266 -120 48 -32 96 -63 106 -69 11 -6 37 -30 59 -52 21 -23 44 -42 50 -42 5 0 10 -6 10 -13 0 -7 9 -18 20 -25 12 -7 18 -17 15 -22 -3 -6 -2 -10 4 -10 13 0 62 -101 55 -112 -3 -5 -1 -14 4 -21 5 -7 12 -27 15 -45 6 -27 2 -38 -19 -59 -24 -24 -28 -25 -123 -20 -54 3 -124 13 -156 22 -51 15 -103 16 -157 3 -10 -2 -29 -15 -43 -28 -31 -29 -33 -72 -5 -102 12 -13 27 -30 35 -39 8 -9 15 -20 15 -26 0 -11 153 -123 169 -123 6 0 11 -4 11 -10 0 -5 12 -16 28 -24 25 -14 26 -15 5 -16 -13 0 -23 -5 -23 -11 0 -17 -204 -3 -241 17 -16 8 -34 12 -39 9 -10 -6 -80 27 -101 48 -8 8 -41 44 -74 82 -33 37 -66 74 -73 81 -7 7 -12 17 -12 21 1 4 -10 22 -24 40 -15 18 -26 36 -26 41 0 5 -7 15 -15 22 -13 10 -75 111 -84 135 -17 47 -64 137 -86 163 -34 41 -100 61 -123 38 -24 -24 -21 -138 9 -332 11 -78 20 -164 15 -164 -8 0 -46 39 -46 47 0 6 -7 17 -16 24 -9 7 -33 40 -54 72 -30 45 -40 72 -45 120 -14 137 -29 210 -49 240 -27 39 -63 49 -96 27 -50 -35 -63 -33 -92 15 -38 63 -179 165 -220 160 -63 -8 -106 -60 -138 -165 -22 -71 -18 -150 12 -260 31 -113 32 -119 17 -116 -43 7 -151 84 -231 166 -22 22 -135 181 -159 224 -37 67 -69 137 -69 153 0 11 -3 23 -7 27 -4 3 -12 22 -19 41 l-12 35 844 0 844 0 11 -24z m591 2 c-3 -13 -8 -25 -12 -28 -4 -3 -10 -36 -14 -74 -3 -38 -8 -72 -11 -74 -3 -3 -22 13 -42 35 -21 22 -57 50 -80 63 -24 13 -43 27 -43 32 0 4 -5 8 -10 8 -6 0 -31 13 -58 30 l-47 30 162 0 161 0 -6 -22z m183 -72 c46 -44 114 -162 146 -254 10 -30 24 -61 30 -69 13 -15 21 -239 11 -323 -6 -46 -10 -55 -27 -56 -11 0 -33 11 -48 25 -36 33 -90 127 -92 160 -3 34 -46 195 -55 201 -14 11 -42 96 -53 164 -14 82 -6 155 20 174 24 17 27 16 68 -22z m-3707 -125 c53 -28 122 -90 122 -110 0 -10 -9 -26 -20 -36 -11 -10 -20 -23 -20 -28 0 -6 -8 -20 -19 -31 -78 -88 -225 -349 -285 -506 -16 -41 -38 -97 -49 -124 l-20 -48 -14 27 c-37 70 -39 440 -4 585 41 164 87 245 159 276 41 19 108 16 150 -5z m1906 -40 c29 -24 79 -80 99 -111 15 -24 16 -32 5 -56 -26 -63 -94 -163 -120 -178 -26 -16 -28 -16 -44 10 -49 73 -55 325 -10 356 14 10 46 0 70 -21z m241 -313 c46 -63 54 -87 54 -158 1 -75 -22 -135 -64 -168 -49 -38 -77 -30 -155 47 -40 39 -70 77 -69 87 0 11 22 37 48 59 27 22 63 65 82 95 58 98 60 98 104 38z"/></g></svg>