<?xml version="1.0" standalone="no"?>
<!DOCTYPE svg PUBLIC "-//W3C//DTD SVG 20010904//EN"
 "http://www.w3.org/TR/2001/REC-SVG-20010904/DTD/svg10.dtd">
<svg version="1.0" xmlns="http://www.w3.org/2000/svg"
 width="500.000000pt" height="500.000000pt" viewBox="0 0 500.000000 500.000000"
 preserveAspectRatio="xMidYMid meet">
<metadata>
Created by potrace 1.11, written by Peter Selinger 2001-2013
</metadata>
<g transform="translate(0.000000,500.000000) scale(0.100000,-0.100000)"
fill="#000000" stroke="none">
<path d="M0 2500 l0 -2500 2500 0 2500 0 0 2500 0 2500 -2500 0 -2500 0 0
-2500z m1037 1505 c45 -52 29 -89 -97 -220 -181 -187 -276 -316 -364 -492 -85
-171 -132 -326 -162 -534 -22 -156 -14 -466 16 -629 44 -241 149 -511 263
-675 55 -79 180 -229 259 -310 118 -123 133 -166 77 -230 -26 -29 -38 -35 -70
-35 -61 0 -116 34 -220 139 -155 156 -305 365 -389 545 -130 276 -190 577
-190 953 0 403 67 666 248 968 82 137 243 337 357 444 118 110 219 138 272 76z
m3079 11 c111 -52 346 -314 476 -531 181 -303 248 -565 248 -968 0 -376 -60
-677 -190 -953 -84 -180 -234 -389 -389 -545 -104 -105 -159 -139 -220 -139
-32 0 -44 6 -70 35 -57 66 -43 103 98 254 59 64 132 148 162 186 172 220 285
477 339 775 31 166 38 484 15 638 -59 399 -207 688 -515 1007 -133 137 -150
172 -114 223 33 47 86 53 160 18z m-1530 -378 c104 -109 197 -246 255 -374 96
-212 116 -416 64 -669 -14 -71 -25 -141 -23 -155 3 -23 7 -25 50 -24 61 0 78
16 153 144 l59 99 54 -77 c112 -160 184 -341 203 -509 31 -269 -76 -541 -305
-782 -58 -60 -198 -181 -210 -181 -3 0 17 28 45 63 59 72 129 198 155 277 25
78 24 174 -4 230 l-21 45 -143 0 c-128 0 -147 2 -183 22 -136 74 -166 185
-130 485 16 129 16 165 6 259 -11 100 -45 227 -68 250 -5 5 -36 -44 -72 -110
-35 -66 -121 -209 -193 -318 -137 -210 -252 -428 -292 -555 -82 -255 -58 -468
65 -604 l44 -48 -50 35 c-72 49 -244 223 -294 298 -58 85 -117 212 -138 297
-23 96 -23 297 1 383 47 173 90 259 250 499 266 402 404 685 456 942 21 102
29 277 14 302 -13 20 195 -164 252 -224z"/>
</g>
</svg>
